<svg xmlns="http://www.w3.org/2000/svg" xmlns:xlink="http://www.w3.org/1999/xlink" width="700" height="500" viewBox="0 0 700 500">
  <image xlink:href="base.jpg" x="0" y="0" width="700" height="500" preserveAspectRatio="xMidYMid slice"/>
  <rect x="0" y="0" width="700" height="500" fill="#01055E" opacity="0.72"/>
  <g transform="translate(310.13,104.00) scale(0.3151)" fill="#ffffff"><path d="M124.55,75.55c1.55-.9,3.47-.9,5.02,0l28.58,16.5c1.55.9,2.51,2.55,2.51,4.35v33c0,1.79-.96,3.45-2.51,4.35l-28.58,16.5c-1.55.9-3.47.9-5.02,0l-28.58-16.5c-1.55-.9-2.51-2.55-2.51-4.35v-33c0-1.79.96-3.45,2.51-4.35l28.58-16.5Z"/><path d="M75.45,0c-8.45-.03-16.27,4.45-20.52,11.75l-21.77,37.41c8.39,4.88,19.14,2.04,24.03-6.35l12.93-22.22c1.09-1.88,3.1-3.03,5.27-3.02l25.71.09c9.71.03,17.6-7.81,17.63-17.51L75.45,0ZM135,.2c-.03,9.7,7.81,17.6,17.51,17.63l25.71.09c2.17,0,4.17,1.17,5.25,3.06l12.78,22.31c4.82,8.42,15.56,11.34,23.98,6.51l-21.51-37.55c-4.2-7.33-11.99-11.87-20.44-11.89l-43.28-.15ZM228.32,63.92c-8.42,4.82-11.34,15.56-6.51,23.98l12.78,22.31c1.08,1.88,1.07,4.2-.02,6.08l-12.93,22.22c-4.88,8.39-2.04,19.14,6.35,24.03l21.77-37.41c4.25-7.3,4.28-16.32.08-23.65l-21.51-37.55ZM219.79,176.59c-8.39-4.88-19.14-2.04-24.02,6.35l-12.93,22.22c-1.09,1.88-3.1,3.03-5.27,3.02l-25.71-.09c-9.7-.03-17.6,7.81-17.63,17.51l43.28.15c8.45.03,16.27-4.45,20.52-11.75l21.77-37.41ZM117.95,225.55c.03-9.7-7.81-17.6-17.51-17.63l-25.71-.09c-2.17,0-4.17-1.17-5.25-3.06l-12.78-22.31c-4.82-8.42-15.56-11.34-23.98-6.51l21.51,37.55c4.2,7.33,11.99,11.86,20.44,11.89l43.28.15ZM24.64,161.83c8.42-4.82,11.34-15.56,6.51-23.98l-12.78-22.31c-1.08-1.88-1.07-4.2.02-6.08l12.93-22.22c4.88-8.39,2.04-19.14-6.35-24.03L3.21,100.63c-4.25,7.3-4.28,16.32-.08,23.65l21.51,37.56Z"/></g>
  <text x="350.0" y="258" text-anchor="middle" font-family="Menlo" font-weight="700" font-size="50" fill="#ffffff">/dev/mtl<tspan dx="28" fill="#ff9b62">2026</tspan></text>
  <rect x="318.0" y="286" width="64" height="4" fill="#ff9b62"/>
  <text x="350.0" y="324" text-anchor="middle" font-family="Helvetica Neue" font-weight="600" font-size="18" letter-spacing="2" fill="#ffffff">27 NOV 2026 · UNIVERSITÉ CONCORDIA</text>
  <text x="350.0" y="360" text-anchor="middle" font-family="Helvetica Neue" font-style="italic" font-size="18" fill="#ffffff" opacity="0.95">Partagez la passion. Découvrez l'innovation.</text>
</svg>